<svg xmlns="http://www.w3.org/2000/svg"  viewBox="0 0 100 100" width="100px" height="100px"><path d="M 45.5 8 C 44.935667 8.0003757 44.37517 8.0372399 43.820312 8.109375 C 40.491166 8.5421852 37.366007 10.236498 34.8125 12.792969 C 31.407824 16.201597 28.968733 21.147932 28.228516 26.847656 C 27.575092 31.882564 28.365358 36.678068 30.222656 40.609375 C 29.463646 41.683798 28.998047 42.984061 28.998047 44.394531 C 28.998047 48.022903 31.961472 50.986328 35.589844 50.986328 C 37.18456 50.986328 38.655093 50.412116 39.796875 49.464844 A 1.0001 1.0001 0 0 0 39.892578 49.496094 L 41.035156 49.804688 L 37.654297 61.125 C 37.281979 61.055585 36.901895 61.007812 36.507812 61.007812 C 33.825942 61.007812 31.590343 62.683138 30.601562 65.013672 C 30.568703 65.013065 30.541162 65.007812 30.507812 65.007812 C 26.929545 65.007812 24.007814 67.929546 24.007812 71.507812 C 24.007812 72.56904 24.325832 73.539106 24.779297 74.425781 C 23.176857 75.610169 22.007812 77.369121 22.007812 79.507812 C 22.007812 83.08608 24.929545 86.007813 28.507812 86.007812 C 28.720329 86.007812 28.904527 85.924872 29.111328 85.904297 C 29.090608 86.111312 29.007812 86.294812 29.007812 86.507812 C 29.007812 90.08608 31.929545 93.007814 35.507812 93.007812 C 38.103986 93.007812 40.283629 91.439644 41.322266 89.226562 C 42.471239 90.248238 43.855595 91.007813 45.507812 91.007812 C 49.086081 91.007812 52.007812 88.08608 52.007812 84.507812 C 52.007812 83.465057 51.689606 82.519506 51.25 81.642578 C 53.966403 80.864742 56.007812 78.467028 56.007812 75.507812 C 56.007812 72.825942 54.332487 70.590343 52.001953 69.601562 C 52.00256 69.568703 52.007812 69.541162 52.007812 69.507812 C 52.007812 66.842669 50.385785 64.543746 48.080078 63.542969 C 49.093981 59.875851 50.109056 56.208414 51.123047 52.541016 C 51.177863 52.556194 51.230776 52.571605 51.287109 52.585938 L 51.462891 52.632812 A 1.0001 1.0001 0 0 0 51.697266 52.666016 C 52.038363 52.745916 52.390214 52.831019 52.785156 52.882812 C 56.794626 53.41345 60.692738 52.030842 63.890625 49.380859 C 64.192668 49.757218 64.50598 50.116355 64.822266 50.412109 C 65.115731 50.686525 65.403319 50.913382 65.738281 51.042969 C 66.073244 51.172556 66.556283 51.150748 66.853516 50.853516 C 67.143411 50.56362 67.202807 50.187496 67.205078 49.814453 C 67.207378 49.44141 67.140598 49.034854 67.037109 48.597656 C 66.901501 48.02478 66.691797 47.405719 66.464844 46.791016 C 66.845691 46.331196 67.214143 45.852098 67.5625 45.351562 C 68.190685 46.111465 68.878188 46.843417 69.582031 47.363281 C 70.102082 47.747395 70.633092 48.03108 71.208984 48.074219 C 71.784877 48.117359 72.385005 47.837275 72.767578 47.285156 C 73.071201 46.84635 73.038859 46.313073 72.900391 45.787109 C 72.761922 45.261146 72.497779 44.69341 72.15625 44.087891 C 71.715061 43.305676 71.050662 42.466484 70.435547 41.636719 C 71.234424 42.046117 71.98313 42.509013 72.789062 42.748047 C 73.485697 42.954664 74.145716 43.069716 74.75 42.933594 C 75.354284 42.797472 75.878907 42.288125 75.994141 41.580078 C 76.085291 41.020044 75.811323 40.519867 75.441406 40.082031 C 75.071491 39.6442 74.568776 39.232855 74 38.835938 C 73.118336 38.220672 72.108491 37.677858 71.179688 37.208984 C 71.282179 36.797368 71.386753 36.386586 71.470703 35.964844 C 72.090478 35.903726 72.716338 35.826994 73.267578 35.707031 C 73.677776 35.617761 74.040954 35.513723 74.345703 35.361328 C 74.498078 35.285128 74.638497 35.197326 74.763672 35.064453 C 74.888806 34.931585 75 34.727515 75 34.5 C 75 34.056557 74.703481 33.795927 74.417969 33.595703 C 74.132457 33.395479 73.783627 33.230121 73.394531 33.074219 C 73.290412 33.032499 73.173412 33.012499 73.064453 32.972656 C 73.939283 32.958346 74.721641 32.980453 75.582031 32.908203 C 76.401373 32.839353 77.148358 32.740841 77.738281 32.578125 C 78.033243 32.496765 78.289377 32.403439 78.513672 32.259766 C 78.737967 32.116093 78.968728 31.878319 78.998047 31.542969 A 0.50005 0.50005 0 0 0 79 31.5 C 79 31.167093 78.77868 30.907662 78.564453 30.761719 C 78.350226 30.615776 78.10677 30.523779 77.826172 30.443359 C 77.264976 30.282519 76.549171 30.184107 75.755859 30.113281 C 74.51567 30.002559 73.165134 29.979543 71.988281 29.976562 C 71.961773 28.935692 71.874153 27.913324 71.728516 26.916016 C 72.371567 26.62356 73.038402 26.293803 73.621094 25.900391 C 74.040263 25.617383 74.409054 25.315133 74.675781 24.958984 C 74.942508 24.602836 75.114322 24.134336 74.972656 23.667969 A 0.50005 0.50005 0 0 0 74.972656 23.664062 C 74.902216 23.439802 74.724931 23.260262 74.548828 23.166016 C 74.372725 23.071766 74.194289 23.035119 74.009766 23.015625 C 73.640719 22.976635 73.232693 23.017527 72.785156 23.091797 C 72.208088 23.187606 71.586553 23.350306 70.982422 23.523438 C 69.293414 17.852054 65.606637 13.407693 60.683594 11.738281 A 1.0001 1.0001 0 0 0 60.390625 11.601562 L 60.259766 11.566406 L 60.234375 11.558594 C 60.018039 11.493674 59.799998 11.434546 59.580078 11.380859 L 59.554688 11.375 L 49.429688 8.6308594 L 49.386719 8.6191406 C 49.04596 8.5120047 48.699226 8.4169417 48.347656 8.3378906 A 1.0001 1.0001 0 0 0 48.324219 8.3339844 L 47.953125 8.2597656 A 1.0001 1.0001 0 0 0 47.947266 8.2578125 C 47.771116 8.2239597 47.527214 8.154263 47.203125 8.1113281 C 46.632504 8.0357371 46.064333 7.9996243 45.5 8 z M 45.496094 9.9980469 C 45.975817 9.9982913 46.458027 10.029716 46.941406 10.09375 C 47.085317 10.11281 47.286553 10.16851 47.568359 10.222656 L 47.933594 10.294922 C 48.235263 10.363452 48.530426 10.444292 48.822266 10.537109 A 1.0001 1.0001 0 0 0 48.865234 10.548828 L 49.660156 10.763672 C 52.537115 11.839238 54.959223 13.974419 56.681641 16.859375 A 0.50009542 0.50009542 0 0 0 57.541016 16.347656 C 56.467036 14.5488 55.111744 13.023017 53.552734 11.820312 L 59.056641 13.3125 A 1.0001 1.0001 0 0 0 59.083984 13.318359 L 58.962891 13.285156 L 59.144531 12.380859 A 1.0001 1.0001 0 0 0 59.824219 13.53125 C 66.514409 15.642348 71.053829 24.193548 69.792969 33.890625 C 69.105243 39.178751 66.830982 43.726902 63.771484 46.787109 C 60.711987 49.847317 56.918225 51.412748 53.046875 50.900391 A 1.0001 1.0001 0 0 0 53.044922 50.900391 C 52.70363 50.855731 52.346471 50.773805 51.958984 50.681641 A 1.0001 1.0001 0 0 0 51.837891 50.662109 L 51.794922 50.650391 A 1.0001 1.0001 0 0 0 51.779297 50.646484 C 51.677297 50.620534 51.572589 50.59301 51.464844 50.5625 A 1.0001 1.0001 0 0 0 51.455078 50.558594 L 50.722656 50.359375 A 1.0009085 1.0009085 0 0 0 50.636719 50.339844 C 49.345483 49.552444 47.97945 49.024814 46.658203 48.710938 C 53.428854 47.060143 59.071693 40.172072 60.251953 31.083984 C 60.43835 29.64883 60.504713 28.241891 60.462891 26.875 A 0.50005 0.50005 0 0 0 59.941406 26.382812 A 0.50005 0.50005 0 0 0 59.464844 26.90625 C 59.505024 28.219359 59.439364 29.572232 59.259766 30.955078 C 57.861838 41.71922 50.060791 49.033319 41.974609 47.986328 L 41.318359 47.808594 L 41.136719 48.710938 A 1.0001 1.0001 0 0 0 40.433594 47.554688 C 40.375931 47.538116 40.249048 47.496122 40.128906 47.457031 C 40.677299 46.601872 41 45.58851 41 44.5 C 41 42.877597 40.288566 41.419376 39.167969 40.412109 C 39.316915 39.291707 39.609622 37.888413 40.138672 36.548828 C 40.871914 36.835324 41.666943 37 42.5 37 C 46.084167 37 49 34.084167 49 30.5 A 0.50005 0.50005 0 0 0 48.492188 29.992188 A 0.50005 0.50005 0 0 0 48 30.5 C 48 33.543833 45.543833 36 42.5 36 C 41.80714 36 41.147991 35.869312 40.539062 35.636719 C 41.030451 34.657055 41.670845 33.771534 42.505859 33.152344 A 0.50005 0.50005 0 0 0 42.222656 32.246094 A 0.50005 0.50005 0 0 0 41.912109 32.347656 C 40.796517 33.174905 40.018352 34.325675 39.455078 35.550781 A 0.50005 0.50005 0 0 0 39.335938 35.822266 C 38.629546 37.467564 38.300993 39.21372 38.144531 40.505859 A 0.50070646 0.50070646 0 0 0 38.134766 40.580078 A 0.50005 0.50005 0 0 0 38.404297 41.070312 C 39.378038 41.896506 40 43.121048 40 44.5 C 40 45.723331 39.511068 46.826684 38.722656 47.636719 A 1.0001 1.0001 0 0 0 38.693359 47.671875 C 38.689776 47.675483 38.687189 47.679998 38.683594 47.683594 C 38.074765 48.292423 37.291504 48.726061 36.414062 48.90625 C 36.146178 48.954786 35.872718 48.986328 35.589844 48.986328 C 33.062946 48.986328 31.036803 46.973748 31.003906 44.455078 C 31.023479 42.489968 32.297213 40.840224 34.060547 40.244141 C 34.006105 41.004022 34 41.5 34 41.5 A 0.50005 0.50005 0 1 0 35 41.5 C 35 41.5 35.02576 36.190367 37.208984 32.185547 C 37.66301 31.353488 38.208313 30.580353 38.857422 29.919922 A 0.50005 0.50005 0 0 0 38.486328 29.064453 A 0.50005 0.50005 0 0 0 38.142578 29.21875 C 37.716878 29.651875 37.348062 30.130409 37.007812 30.626953 C 37.006821 30.584088 37 30.543121 37 30.5 C 37 27.456167 39.456167 25 42.5 25 A 0.50005 0.50005 0 1 0 42.5 24 C 38.915833 24 36 26.915833 36 30.5 C 36 31.016643 36.070035 31.5157 36.183594 31.998047 C 34.90165 34.485511 34.376913 37.269789 34.160156 39.185547 C 33.438131 39.367718 32.775923 39.686927 32.199219 40.123047 C 30.396716 36.508336 29.583963 31.936576 30.210938 27.105469 C 30.89772 21.817193 33.169988 17.267153 36.226562 14.207031 C 38.901066 11.529424 42.138028 9.9963356 45.496094 9.9980469 z M 58.337891 18.560547 A 0.50005 0.50005 0 0 0 57.880859 19.257812 C 58.376089 20.458841 58.765316 21.747471 59.035156 23.103516 A 0.50005 0.50005 0 1 0 60.015625 22.908203 C 59.733465 21.490248 59.325457 20.139925 58.804688 18.876953 A 0.50005 0.50005 0 0 0 58.337891 18.560547 z M 73.904297 24.009766 C 73.955647 24.015166 73.960854 24.021517 73.990234 24.029297 C 73.998934 24.110297 74.003784 24.189365 73.875 24.361328 C 73.718821 24.569867 73.427956 24.825523 73.0625 25.072266 C 72.622241 25.369512 72.087292 25.644287 71.550781 25.898438 C 71.460675 25.421775 71.360712 24.951139 71.244141 24.488281 C 71.83157 24.320307 72.428832 24.164524 72.949219 24.078125 C 73.349432 24.011675 73.698906 23.988066 73.904297 24.009766 z M 71.988281 30.976562 C 73.149771 30.979921 74.479903 31.003288 75.667969 31.109375 C 76.428783 31.177295 77.106446 31.278902 77.550781 31.40625 C 77.660457 31.43768 77.697301 31.464274 77.773438 31.496094 C 77.680718 31.536174 77.615693 31.573824 77.472656 31.613281 C 76.99533 31.74494 76.285206 31.845962 75.498047 31.912109 C 74.335688 32.009787 73.076561 32.028457 71.962891 32.029297 C 71.981099 31.67598 71.984005 31.32653 71.988281 30.976562 z M 71.830078 33.597656 C 72.248459 33.722938 72.663999 33.859887 73.023438 34.003906 C 73.372466 34.143754 73.668231 34.292927 73.84375 34.416016 C 73.92503 34.473016 73.897106 34.432938 73.916016 34.455078 C 73.906216 34.460478 73.909518 34.461277 73.898438 34.466797 C 73.727812 34.552117 73.420489 34.648909 73.054688 34.728516 C 72.638786 34.819025 72.145947 34.88841 71.642578 34.945312 C 71.685316 34.678392 71.742177 34.418842 71.777344 34.148438 C 71.801363 33.963707 71.809907 33.781791 71.830078 33.597656 z M 70.929688 38.203125 C 71.779611 38.640465 72.672219 39.129017 73.427734 39.65625 C 73.954833 40.024083 74.401058 40.399086 74.677734 40.726562 C 74.954411 41.05404 75.02571 41.297956 75.005859 41.419922 C 74.941089 41.817875 74.836731 41.887778 74.529297 41.957031 C 74.221863 42.026281 73.68746 41.972901 73.074219 41.791016 C 72.149957 41.516886 71.102242 40.989836 70.152344 40.46875 C 70.441771 39.734356 70.703869 38.981138 70.929688 38.203125 z M 69.509766 41.970703 C 70.185366 42.867847 70.830682 43.77431 71.285156 44.580078 C 71.602128 45.142059 71.831437 45.652979 71.933594 46.041016 C 72.035751 46.429052 71.993193 46.64565 71.945312 46.714844 C 71.716386 47.045225 71.555732 47.098393 71.285156 47.078125 C 71.01458 47.057855 70.613106 46.881605 70.175781 46.558594 C 69.515638 46.071007 68.786604 45.282337 68.126953 44.464844 C 68.626199 43.671371 69.096448 42.846389 69.509766 41.970703 z M 65.707031 47.632812 C 65.84973 48.050954 65.977743 48.46182 66.064453 48.828125 C 66.156963 49.218928 66.206557 49.565637 66.205078 49.808594 C 66.203637 50.041985 66.145752 50.140198 66.148438 50.140625 C 66.144537 50.134699 66.144867 50.12884 66.099609 50.111328 C 65.977134 50.063948 65.749644 49.911553 65.505859 49.683594 C 65.230867 49.426451 64.931337 49.077365 64.634766 48.705078 C 64.818139 48.535575 65.009554 48.379159 65.1875 48.201172 C 65.367241 48.021389 65.532777 47.821026 65.707031 47.632812 z M 43.302734 49.339844 C 45.074841 49.298271 47.419049 49.724126 49.554688 50.865234 A 1.0001 1.0001 0 0 0 49.433594 51.142578 C 48.337409 55.10766 47.240919 59.073599 46.144531 63.039062 C 45.934712 63.018448 45.722867 63.007813 45.507812 63.007812 C 44.190042 63.007812 43.028303 63.498403 42.001953 64.175781 C 41.39883 63.183499 40.548559 62.363361 39.539062 61.802734 L 43.164062 49.666016 A 1.0001 1.0001 0 0 0 43.302734 49.339844 z M 36.507812 63.007812 C 38.447192 63.007812 40.081094 64.22859 40.71875 65.935547 A 1.0001 1.0001 0 0 0 42.357422 66.298828 C 43.170859 65.500151 44.274634 65.007813 45.507812 65.007812 C 48.005545 65.007812 50.007813 67.010081 50.007812 69.507812 C 50.007812 69.689791 49.992497 69.878222 49.966797 70.082031 A 1.0001 1.0001 0 0 0 49.960938 70.236328 C 49.747564 71.271891 49.195401 72.181126 48.421875 72.84375 A 0.50069878 0.50069878 0 1 0 49.074219 73.603516 C 49.820775 72.963995 50.396928 72.13173 50.732422 71.185547 C 52.619096 71.718921 54.007813 73.438402 54.007812 75.507812 C 54.007812 77.92833 52.120987 79.875057 49.732422 79.992188 C 48.434285 79.965372 47.860711 79.679478 47.128906 79.082031 A 0.50005 0.50005 0 0 0 46.806641 78.964844 A 0.50005 0.50005 0 0 0 46.496094 79.855469 C 47.126639 80.370246 47.806165 80.737666 48.746094 80.902344 A 1.0001 1.0001 0 0 0 48.970703 81.634766 C 49.619572 82.415538 50.007813 83.410515 50.007812 84.507812 C 50.007812 87.005545 48.005545 89.007813 45.507812 89.007812 C 43.927681 89.007812 42.551142 88.199789 41.746094 86.974609 A 1.0001 1.0001 0 0 0 41.257812 86.587891 C 40.924751 85.950532 40.71875 85.235776 40.71875 84.464844 A 0.50005 0.50005 0 0 0 40.210938 83.957031 A 0.50005 0.50005 0 0 0 39.71875 84.464844 C 39.71875 85.295933 39.906051 86.082876 40.232422 86.792969 A 1.0001 1.0001 0 0 0 39.927734 87.339844 C 39.537676 89.426698 37.718755 91.007813 35.507812 91.007812 C 33.010081 91.007812 31.007814 89.005545 31.007812 86.507812 C 31.007812 85.991309 31.099412 85.496601 31.263672 85.025391 A 1.0001 1.0001 0 0 0 31.285156 84.951172 C 32.190852 85.607352 33.299313 86 34.5 86 C 35.492496 86 36.428149 85.73639 37.232422 85.275391 A 0.50086348 0.50086348 0 1 0 36.734375 84.40625 C 36.076648 84.783251 35.315504 85 34.5 85 C 32.009313 85 30 82.990687 30 80.5 A 0.50005 0.50005 0 0 0 29.492188 79.992188 A 0.50005 0.50005 0 0 0 29 80.5 C 29 81.707683 29.397396 82.821923 30.060547 83.730469 A 1.0001 1.0001 0 0 0 29.990234 83.751953 C 29.520908 83.916383 29.025364 84.007812 28.507812 84.007812 C 26.010081 84.007812 24.007812 82.005545 24.007812 79.507812 C 24.007812 78.000058 24.747818 76.67905 25.878906 75.863281 C 26.642092 75.391965 27.534375 75.107422 28.5 75.107422 A 0.50005 0.50005 0 1 0 28.5 74.107422 C 27.956413 74.107422 27.43274 74.186111 26.931641 74.322266 A 1.0001 1.0001 0 0 0 26.802734 74.058594 C 26.300717 73.330997 26.007813 72.459738 26.007812 71.507812 C 26.007812 69.023479 27.989747 67.033043 30.46875 67.011719 A 0.50005 0.50005 0 0 0 30.5 67.011719 C 31.568709 67.011719 32.554505 67.345098 33.365234 67.914062 A 0.50005 0.50005 0 1 0 33.939453 67.095703 C 33.414564 66.72734 32.823719 66.449302 32.193359 66.263672 C 32.733347 64.387407 34.445868 63.007813 36.507812 63.007812 z M 33.5 69 C 31.977215 69 30.593434 69.621773 29.597656 70.623047 A 0.50005 0.50005 0 1 0 30.306641 71.328125 C 31.122863 70.507398 32.248785 70 33.5 70 C 35.990687 70 38 72.009313 38 74.5 A 0.50005 0.50005 0 1 0 39 74.5 C 39 71.468687 36.531313 69 33.5 69 z M 29.158203 76.521484 A 0.50005 0.50005 0 0 0 28.753906 77.279297 C 29.708858 78.907556 31.481011 80 33.5 80 A 0.50005 0.50005 0 1 0 33.5 79 C 31.840989 79 30.398236 78.105179 29.617188 76.773438 A 0.50005 0.50005 0 0 0 29.158203 76.521484 z"/></svg>